<svg width="25" height="28" viewBox="0 0 25 28" fill="none" xmlns="http://www.w3.org/2000/svg">
<path d="M20.9253 15.0215C20.9401 13.9928 21.2437 12.9841 21.808 12.0894C22.3723 11.1947 23.1789 10.4429 24.1528 9.9041C23.5342 9.10894 22.718 8.45455 21.7691 7.99292C20.8202 7.53128 19.7648 7.27512 18.6866 7.24476C16.3868 7.02752 14.1571 8.48321 12.9852 8.48321C11.7905 8.48321 9.9861 7.26633 8.04303 7.3023C6.7862 7.33885 5.56132 7.66774 4.48773 8.25695C3.41415 8.84616 2.52847 9.67558 1.917 10.6644C-0.73178 14.7913 1.24397 20.8565 3.78127 24.1924C5.05074 25.8259 6.53438 27.6506 8.4757 27.5859C10.3754 27.515 11.0849 26.4957 13.378 26.4957C15.6498 26.4957 16.3155 27.5859 18.2962 27.5447C20.3346 27.5149 21.619 25.904 22.8439 24.255C23.756 23.0911 24.4579 21.8047 24.9235 20.4435C23.7392 19.9927 22.7286 19.2382 22.0176 18.274C21.3066 17.3099 20.9267 16.1787 20.9253 15.0215Z" fill="black"/>
<path d="M17.1876 5.05024C18.2991 3.84952 18.8467 2.30621 18.7141 0.748047C17.016 0.908544 15.4475 1.63887 14.321 2.79352C13.7703 3.35759 13.3484 4.01382 13.0797 4.72469C12.8109 5.43555 12.7004 6.18712 12.7546 6.93643C13.6039 6.9443 14.4442 6.77864 15.2121 6.45191C15.9799 6.12519 16.6554 5.64594 17.1876 5.05024Z" fill="black"/>
</svg>
