<svg width="150" height="150" viewBox="0 0 150 150" fill="none" xmlns="http://www.w3.org/2000/svg">
<g clip-path="url(#clip0_460_803)">
<path d="M17.7576 64.6619C11.2391 56.0456 24.8005 43.9826 24.8005 43.9826C24.8005 43.9826 37.7626 31.7698 51.0243 34.4671C51.0243 34.4671 67.1333 37.3892 60.0903 59.1924C60.0903 59.1924 59.5658 60.8408 58.5169 63.4631C63.1622 64.8118 63.1622 66.0106 62.8625 66.7598C62.7127 67.0595 62.338 67.2843 61.5139 67.1345C60.0903 66.7598 58.6667 66.5351 57.1682 66.4601C54.3211 72.7538 49.3011 81.7448 42.1832 87.5141C37.313 91.4851 32.5178 93.3582 27.8725 91.8597C27.8725 91.8597 23.302 90.3612 23.7516 86.1654C23.7516 86.1654 24.1262 82.6439 26.2241 82.569C28.322 82.569 28.2471 85.1165 27.7975 86.3902C27.7975 86.3902 26.4489 89.0875 28.5468 89.3872C37.1632 90.3612 46.379 74.552 50.5748 66.3103C47.8026 66.3103 44.9554 66.6849 42.4079 67.1345C41.5838 67.2843 40.5348 67.2843 39.8605 66.9846C39.8605 66.9846 37.8375 66.3852 38.2121 64.7369C38.4369 63.613 41.1342 62.9387 42.4829 62.639C44.7306 62.1894 48.1772 61.8148 52.5228 62.3393C52.8225 61.7399 53.0473 61.2903 53.0473 61.2903C61.0643 43.4582 54.1712 38.5131 54.1712 38.5131C47.2032 33.568 33.6417 44.3572 31.9184 45.8557C21.279 53.7978 21.279 61.3652 22.2531 62.564C23.0023 63.2384 23.0772 66.0106 21.8784 66.4601C19.4808 67.1345 17.8325 64.7369 17.8325 64.7369L17.7576 64.6619ZM18.4319 58.3682C18.4319 58.3682 18.4319 58.8927 18.4319 59.0426C18.4319 59.1924 18.4319 59.2673 18.4319 59.3423V59.1924V58.2933C18.4319 58.2933 18.4319 57.6939 18.5817 57.3942C18.7316 56.7948 19.0313 56.1954 19.1811 55.6709C19.1811 55.5211 19.331 55.3712 19.4059 55.2214L19.6307 54.7718C19.6307 54.7718 19.9304 54.2474 20.1552 54.0226C20.4549 53.4981 20.7546 53.0486 21.0543 52.5241C21.7286 51.5501 22.4778 50.651 23.2271 49.8268C23.2271 49.6769 23.3769 49.602 23.4519 49.4522C23.6017 49.4522 23.6766 49.3023 23.7516 49.1525C23.9014 49.1525 23.9763 48.9277 24.0513 48.8528C24.0513 48.7029 24.276 48.628 24.351 48.4781C24.5758 48.2533 24.7256 48.1035 24.8755 47.9537C25.0253 47.7289 25.2501 47.5041 25.3999 47.3543C25.3999 47.3543 25.5498 47.2044 25.6996 47.0546C25.6996 47.0546 25.8495 46.9047 25.9244 46.7548C26.1492 46.605 26.374 46.3802 26.4489 46.2304C26.8235 45.8558 27.1232 45.5561 27.4978 45.1814C27.8725 44.8068 28.1722 44.5071 28.5468 44.2074C28.9214 43.8328 29.2211 43.608 29.5957 43.2334C31.0193 42.0346 32.293 41.0606 33.6417 40.1614C34.2411 39.7119 34.8405 39.4122 35.4399 39.0376C35.5898 38.8877 35.7396 38.8128 35.8895 38.7379C35.8895 38.7379 36.0393 38.7379 36.1142 38.588C36.1142 38.588 36.2641 38.588 36.339 38.588C36.4889 38.4382 36.6387 38.3632 36.7886 38.2883C36.9384 38.2134 37.0883 38.1385 37.2381 38.0635C38.2871 37.5391 39.2611 37.1644 40.0103 36.8647C40.2351 36.8647 40.4599 36.7149 40.5348 36.64C40.7596 36.64 40.9094 36.64 41.0593 36.4901H41.2091C41.2091 36.4901 41.2091 36.4901 41.359 36.4901H41.5838C41.5838 36.4901 41.8085 36.4901 41.9584 36.3403C42.4079 36.3403 42.5578 36.1904 42.5578 36.1904C40.8345 36.1904 38.9614 36.7898 37.1632 37.5391C35.365 38.2883 33.5668 39.2623 31.9933 40.3862C31.1692 40.9107 30.4199 41.585 29.5957 42.1844C29.1462 42.4841 28.8465 42.7838 28.4719 43.1585C28.2471 43.3083 28.0972 43.4582 27.9474 43.608C27.7975 43.7579 27.5728 43.9826 27.4229 44.1325C25.9993 45.4811 24.8005 46.8298 23.6017 48.1784C22.4778 49.602 21.5038 50.8757 20.7546 52.1495C20.305 52.7489 20.0053 53.4232 19.7056 54.0226C19.4059 54.622 19.1811 55.1465 19.0313 55.6709C18.5817 56.7199 18.5068 57.619 18.5068 58.2933L18.4319 58.3682ZM55.5199 63.9127C55.5199 63.9127 54.9954 63.9127 54.8455 63.9127C54.5458 63.9127 54.321 63.9127 54.0963 63.7628H53.7216C53.7216 63.7628 53.4219 63.7628 53.347 63.7628C53.0473 63.7628 52.8225 63.7628 52.5978 63.7628C52.373 63.7628 52.0733 63.7628 51.9234 63.7628H51.2491C50.7246 63.7628 50.35 63.7628 49.8255 63.7628C48.1023 63.7628 46.5288 63.9127 45.405 64.0625C44.8805 64.0625 44.4309 64.0625 44.0563 64.2124C43.7566 64.2124 43.6067 64.2124 43.6067 64.2124H47.2781C47.2781 64.2124 47.8026 64.2124 48.1023 64.2124H49.0014C49.5258 64.2124 50.1252 64.2124 50.5748 64.3622H51.324C51.324 64.3622 51.8485 64.3622 52.0733 64.3622H52.2981H52.4479H52.8975C52.8975 64.3622 53.347 64.3622 53.5718 64.3622C53.7966 64.3622 54.0214 64.3622 54.1712 64.3622C54.4709 64.3622 54.6957 64.3622 54.8455 64.3622C55.0703 64.3622 55.2951 64.3622 55.4449 64.3622C55.5948 64.3622 55.8196 64.3622 55.9694 64.5121C57.4679 64.6619 58.6667 64.9616 59.4909 65.0366C60.3151 65.1864 60.8395 65.2613 60.8395 65.2613C59.1912 64.6619 57.2431 64.0625 55.2201 63.7628L55.5199 63.9127ZM57.0933 60.6909C56.8685 61.4402 56.7936 61.8897 56.7936 61.8897C57.5428 60.4661 58.367 58.8178 58.8915 57.1694C59.416 55.4462 59.7906 53.648 59.9404 52.0745V51.7748C59.9404 51.7748 59.9404 51.5501 59.9404 51.4751V50.8757C59.9404 50.8757 59.9404 50.2014 59.9404 49.8268V48.8528C59.9404 48.8528 59.9404 48.5531 59.9404 48.4032V48.0286C59.9404 48.0286 59.9404 47.5041 59.9404 47.3543V47.0546C59.9404 47.0546 59.9404 46.9047 59.9404 46.8298C59.9404 46.6799 59.9404 46.5301 59.9404 46.4551V47.2044C59.9404 47.2044 59.9404 47.7289 59.9404 48.0286C59.9404 48.3283 59.9404 48.5531 59.7906 48.8528C59.7906 49.1525 59.7906 49.3772 59.7906 49.6769C59.7906 50.2014 59.6407 50.651 59.4909 51.1754C59.4909 51.6999 59.341 52.1495 59.2661 52.6739C58.8915 54.5471 58.5169 56.1954 58.1422 57.4691C58.1422 57.8438 57.9924 58.1435 57.9175 58.4432C57.7676 58.7429 57.6927 58.9676 57.6178 59.2673C57.6178 59.567 57.4679 59.7918 57.4679 59.9417C57.4679 60.2414 57.3181 60.4661 57.2431 60.5411L57.0933 60.6909Z" fill="white"/>
<path d="M59.0412 37.6879C64.8104 38.2873 73.9513 38.662 80.4698 34.3912C80.4698 34.3912 82.193 33.0426 83.4668 33.3423C84.8154 33.7918 85.4148 37.5381 83.3169 40.0855C79.0462 45.1055 64.5857 46.2294 58.8164 44.9557C58.292 44.9557 57.9173 44.656 57.6176 44.2064C57.0932 43.5321 56.269 42.3333 56.0442 40.9097C55.6696 39.0366 57.1681 37.4632 58.9663 37.613L59.0412 37.6879ZM62.7125 42.9327C62.7125 42.9327 63.237 42.9327 63.5367 43.0825C63.8364 43.0825 64.1361 43.2324 64.3609 43.2324C64.6606 43.3073 64.8854 43.2324 65.26 43.3073C65.4848 43.3073 65.7845 43.3073 66.0092 43.3073C66.3089 43.3822 66.5337 43.3073 66.7585 43.3073C66.9833 43.3073 67.283 43.3073 67.5077 43.3073C69.5307 43.2324 71.254 42.9327 72.6026 42.4831C72.9023 42.4831 73.3519 42.2584 73.6516 42.2584C73.9513 42.1085 74.1761 42.1085 74.4008 41.9587C74.7005 41.9587 74.9253 41.8088 75.1501 41.659C75.3749 41.659 75.5996 41.5091 75.7495 41.4342C76.4238 41.1345 76.7235 40.8348 76.7235 40.8348C75.1501 41.0596 73.4268 41.3593 71.6286 41.5091C69.9803 41.7339 68.1821 41.9587 66.6086 42.1834C65.0352 42.1834 63.6866 42.3333 62.7125 42.3333C62.4878 42.3333 62.263 42.3333 62.0382 42.3333C61.8134 42.3333 61.6636 42.3333 61.5887 42.3333C61.4388 42.3333 61.289 42.3333 61.214 42.3333C61.6636 42.5581 62.263 42.7079 62.8624 42.8578L62.7125 42.9327Z" fill="white"/>
<path d="M133.817 79.1958C133.817 79.1958 133.592 80.7692 132.393 80.8442C131.194 80.8442 130.895 79.5704 130.595 79.046C129.995 76.8731 128.947 75.0749 126.174 74.026C123.252 72.9021 119.056 72.9021 112.538 76.4236C111.789 76.8731 110.965 77.3227 109.99 77.8472C111.639 85.9391 110.365 93.8062 110.365 93.8062C110.365 93.8062 106.169 120.929 88.487 116.059C82.0435 114.336 82.6429 102.797 84.2163 93.5814C77.9226 103.921 75.525 115.085 67.7328 112.612C57.0934 109.241 70.9546 94.031 75.7498 83.3167C79.2712 76.2737 76.499 75.0749 76.499 75.0749C73.3522 72.4526 67.2832 81.3686 67.2832 81.3686C64.2113 85.2647 62.9376 90.5095 63.3871 93.5814C63.537 94.4805 62.563 95.2298 61.6639 94.8551C52.6728 90.959 60.8397 79.8701 60.8397 79.8701C60.8397 79.8701 68.0325 68.4815 75.6748 71.6284C79.7208 73.2767 83.1673 76.8731 79.2712 86.5385C73.502 100.924 69.0065 106.618 70.4301 107.143C70.8047 107.143 73.7268 109.615 86.6139 82.8671C86.7637 82.2677 86.9136 81.8931 86.9136 81.8931C86.9136 81.8931 86.9136 73.052 93.3571 77.8472C93.3571 77.8472 96.8786 80.3946 93.3571 88.4865C93.3571 88.4865 83.542 112.388 90.2852 113.811C96.9535 115.31 107.068 95.0799 104.746 78.1469C104.521 77.9221 104.221 77.5475 103.922 77.1728C102.798 75.5994 101.599 72.977 103.922 70.8042C105.87 68.8561 107.743 69.98 108.492 72.6773C108.792 73.3516 109.016 74.1009 109.241 74.8502C114.561 71.7782 122.128 67.0579 127.448 68.4066C127.448 68.4066 135.015 69.8302 133.892 79.1958H133.817ZM71.0295 72.6773C70.4301 72.977 69.8307 73.2018 69.3062 73.5015C68.7817 73.8761 68.2573 74.1758 67.8077 74.4755C67.2832 74.8501 66.8337 75.1499 66.3092 75.5994C66.0844 75.7493 65.8597 75.974 65.7098 76.1239C65.56 76.1239 65.485 76.2737 65.3352 76.4236C65.3352 76.4236 65.1853 76.5734 65.0355 76.7233C64.2862 77.4725 63.537 78.2967 63.0125 79.046C62.488 79.7952 61.9636 80.5445 61.6639 81.3686C61.4391 81.7433 61.2892 82.043 61.1394 82.4176C61.1394 82.5674 60.9895 82.7922 60.9895 82.9421C60.9895 82.9421 60.9895 83.0919 60.9895 83.1668C60.9895 83.1668 60.9895 83.3167 60.9895 83.4665C60.9895 83.6164 60.9895 83.7662 60.8397 83.9161C60.8397 83.9161 60.8397 84.0659 60.8397 84.1409V84.3656C60.8397 84.3656 60.8397 84.5904 60.8397 84.7403C60.8397 84.7403 60.8397 84.8901 60.8397 84.965V85.1149C60.8397 85.1149 60.8397 85.5644 60.8397 85.7143V86.4635C61.0645 85.6394 61.3642 84.7403 61.7388 83.8412C62.1134 83.017 62.563 82.1179 63.0874 81.2937C64.1364 79.6454 65.4101 78.0719 66.6838 76.8731C67.9576 75.5994 69.1564 74.6254 69.9805 73.951C70.505 73.5764 70.8047 73.4266 71.0295 73.2018C71.1793 73.2018 71.3292 73.0519 71.4041 72.977L71.0295 72.6773ZM69.9805 98.6014C70.8047 96.953 71.554 95.4545 72.2283 94.4805L72.8277 93.2068L73.1274 92.7572C72.2283 93.8062 71.479 94.9301 70.6549 95.979C69.9805 97.028 69.3062 98.0769 68.7817 99.051C67.7328 101.149 66.9835 103.022 66.6089 104.67C66.3841 105.495 66.2343 106.244 66.2343 106.918C66.2343 107.293 66.2343 107.592 66.2343 107.892C66.2343 107.892 66.2343 108.042 66.2343 108.117V108.342C66.2343 108.342 66.2343 108.566 66.3841 108.716C66.534 109.166 66.6838 109.391 66.8337 109.615C66.8337 109.765 66.9835 109.765 67.0585 109.84C66.9086 109.615 66.8337 109.391 66.7588 109.241C66.7588 109.016 66.6089 108.716 66.6089 108.566C66.6089 108.342 66.6089 108.042 66.6089 107.892C66.6089 107.592 66.6089 107.368 66.6089 107.143C66.7588 106.169 67.0585 105.195 67.3582 104.221C67.6579 103.247 68.0325 102.273 68.482 101.299C68.9316 100.4 69.3062 99.5005 69.7558 98.6763L69.9805 98.6014ZM87.4381 100.25C87.7378 99.2757 88.1124 98.1518 88.5619 97.028C89.0115 95.9041 89.461 94.7802 89.9106 93.6563C90.1354 93.0569 90.4351 92.5325 90.5849 92.008C90.7348 91.4835 91.0345 90.8841 91.1843 90.2847C91.4091 89.7602 91.5589 89.1608 91.7088 88.7113C91.7088 88.4116 91.8586 88.1868 92.0085 87.8871C92.0085 87.7373 92.0085 87.5874 92.0085 87.4376C92.0085 87.2877 92.0085 87.1379 92.1583 86.988C92.1583 86.7632 92.3082 86.4635 92.3831 86.2388C92.458 86.014 92.3831 85.7143 92.533 85.4895C92.533 85.3397 92.533 85.1898 92.533 85.1149C92.533 84.965 92.533 84.8152 92.533 84.6653C92.533 84.4406 92.533 84.1409 92.533 83.991C92.533 83.8412 92.533 83.7662 92.533 83.6164V83.3167V82.6424C92.533 82.6424 92.533 82.1928 92.533 82.043C92.533 81.8931 92.533 81.6683 92.533 81.5185C92.533 81.3686 92.533 81.2188 92.533 80.994C92.533 80.8442 92.3831 80.6943 92.3082 80.5445V80.3946C92.3082 80.3946 92.3082 80.2448 92.3082 80.1698C92.3082 80.1698 92.3082 80.1698 92.3082 80.02V79.8701C92.3082 79.8701 92.3082 79.8701 92.3082 79.7203C92.3082 79.7203 92.3082 79.7203 92.3082 79.5704H92.1583V79.7203C92.1583 79.7203 92.2083 79.7702 92.3082 79.8701V80.02C92.3082 80.02 92.3082 80.02 92.3082 80.1698V80.3197C92.3082 80.3197 92.458 80.3197 92.458 80.4695V80.6194C92.458 80.6194 92.6828 81.3686 92.6828 81.7433V82.8671C92.6828 82.8671 92.6828 83.3167 92.6828 83.3916C92.6828 83.6164 92.6828 83.7662 92.533 83.9161V84.2158C92.533 84.2158 92.533 84.3656 92.533 84.4406C92.533 84.6653 92.533 84.8152 92.3831 85.04C92.3831 85.4146 92.1583 85.6394 92.0834 86.014C92.0834 86.3886 91.8586 86.6883 91.7837 86.988C91.7837 86.988 91.7837 87.1379 91.7837 87.2128C91.7837 87.3626 91.7837 87.4376 91.6339 87.5125C91.6339 87.6623 91.6339 87.8122 91.484 87.962C91.0345 89.2358 90.5849 90.4346 90.2103 91.4835C89.7607 92.6074 89.461 93.5814 89.1613 94.4805C88.7867 95.3796 88.6369 96.2038 88.4121 96.953C88.1873 97.7023 88.0375 98.3766 87.9625 98.8262C87.9625 99.3506 87.8127 99.8002 87.8127 100.1C87.8127 100.325 87.8127 100.475 87.8127 100.475L87.4381 100.25ZM109.241 86.0889C109.241 85.1898 109.241 84.5155 109.241 83.991V83.3916V83.2418C109.241 84.2907 109.241 85.2647 109.091 86.3137C109.091 87.2877 108.867 88.2617 108.717 89.1608C108.492 91.034 108.192 92.8322 107.818 94.5554C107.143 97.9271 106.244 100.774 105.27 103.097C105.27 103.247 105.27 103.397 105.12 103.546V103.771C105.12 103.771 105.12 103.921 105.12 103.996C104.971 104.221 104.896 104.52 104.746 104.745C104.596 104.97 104.446 105.27 104.371 105.42C104.371 105.569 104.221 105.644 104.146 105.794C104.071 105.944 104.146 106.019 103.996 106.169C103.847 106.394 103.697 106.618 103.622 106.768C103.622 106.768 103.622 106.768 103.622 106.918C103.622 106.918 103.622 106.918 103.622 107.068C103.622 107.068 103.472 107.218 103.397 107.368C103.322 107.517 103.172 107.742 103.097 107.892C103.097 107.892 103.097 107.942 103.097 108.042C103.097 108.042 102.948 108.267 102.948 108.342C102.723 108.641 102.573 108.866 102.423 109.016C102.273 109.241 102.123 109.466 102.048 109.54C101.824 109.84 101.674 109.99 101.674 109.99C102.723 109.016 103.697 107.817 104.521 106.469C105.42 105.195 106.169 103.771 106.844 102.273C107.443 100.774 107.968 99.2008 108.342 97.7023C108.792 96.2038 109.016 94.6304 109.241 93.2068C109.691 90.3596 109.766 87.8122 109.691 86.0889H109.241ZM132.018 74.9251C132.018 74.4006 131.869 73.9511 131.644 73.4266C131.644 73.4266 131.644 73.2018 131.494 73.0519C131.494 73.0519 131.344 72.8272 131.344 72.6773C131.344 72.6773 131.194 72.4525 131.119 72.3776C131.119 72.2278 130.969 72.0779 130.82 72.003C130.22 71.1788 129.321 70.5045 128.272 69.98C128.047 69.98 127.748 69.7552 127.523 69.6803C127.373 69.6803 127.298 69.6803 127.148 69.5305H126.924C126.924 69.5305 126.774 69.5305 126.699 69.5305C126.174 69.5305 125.575 69.3806 125.125 69.3806C124.001 69.3806 123.027 69.5305 122.053 69.7552C121.154 69.98 120.33 70.2048 119.506 70.5045C118.757 70.8791 118.082 71.1039 117.633 71.4036C117.183 71.7033 116.734 72.003 116.434 72.1528C116.284 72.1528 116.134 72.3027 116.059 72.3776C116.659 72.003 117.333 71.7782 117.933 71.6284C118.532 71.3287 119.131 71.1039 119.731 71.029C120.93 70.6543 122.128 70.5045 123.177 70.3546C124.301 70.2048 125.35 70.2048 126.249 70.3546C126.399 70.3546 126.474 70.3546 126.624 70.3546H126.998C126.998 70.3546 127.448 70.5045 127.598 70.5794C127.973 70.7293 128.347 70.8791 128.722 71.1039C129.396 71.4785 129.995 71.8531 130.445 72.3027C130.895 72.7522 131.194 73.2018 131.419 73.5764C131.569 73.8012 131.644 73.9511 131.719 74.1009C131.719 74.3257 131.869 74.4755 131.944 74.5504C131.944 74.7752 131.944 74.9251 131.944 74.9251H132.018Z" fill="white"/>
</g>
<defs>
<clipPath id="clip0_460_803">
<rect width="150" height="150" fill="white"/>
</clipPath>
</defs>
</svg>
