<svg width="30" height="34" viewBox="0 0 30 34" fill="none" xmlns="http://www.w3.org/2000/svg">
<path d="M14.3009 15.9134L1.08984 30.3532C1.09108 30.3558 1.09108 30.3596 1.09233 30.3622C1.49808 31.9301 2.8878 33.084 4.5381 33.084C5.19823 33.084 5.8174 32.9 6.34847 32.578L6.39066 32.5524L21.2607 23.716L14.3009 15.9134Z" fill="#EA4335"/>
<path d="M27.6652 13.4549L27.6528 13.446L21.2328 9.61371L14 16.2419L21.2588 23.7148L27.6441 19.9209C28.7634 19.2973 29.524 18.0821 29.524 16.6815C29.524 15.2887 28.7745 14.0798 27.6652 13.4549Z" fill="#FBBC04"/>
<path d="M1.08937 2.94736C1.00996 3.24893 0.967773 3.56584 0.967773 3.89297V29.4092C0.967773 29.7363 1.00996 30.0532 1.09062 30.3535L14.7546 16.2831L1.08937 2.94736Z" fill="#4285F4"/>
<path d="M14.398 16.6504L21.2349 9.61069L6.38224 0.74237C5.84248 0.40885 5.21214 0.217173 4.53837 0.217173C2.88807 0.217173 1.49586 1.37363 1.09011 2.94284C1.09011 2.94411 1.08887 2.94539 1.08887 2.94667L14.398 16.6504Z" fill="#34A853"/>
</svg>
