<svg width="20" height="21" viewBox="0 0 20 21" fill="none" xmlns="http://www.w3.org/2000/svg">
<g clip-path="url(#clip0_458_741)">
<path d="M12.6516 7.94796C14.1161 9.41242 14.1161 11.7868 12.6516 13.2513C11.1872 14.7157 8.81281 14.7157 7.34835 13.2513C5.88388 11.7868 5.88388 9.41242 7.34835 7.94796C8.81281 6.48349 11.1872 6.48349 12.6516 7.94796Z" fill="#BBBBBB"/>
<path d="M14.375 0.599609H5.625C2.52319 0.599609 0 3.1228 0 6.22461V14.9746C0 18.0764 2.52319 20.5996 5.625 20.5996H14.375C17.4768 20.5996 20 18.0764 20 14.9746V6.22461C20 3.1228 17.4768 0.599609 14.375 0.599609ZM10 15.5996C7.24304 15.5996 5 13.3572 5 10.5996C5 7.84205 7.24304 5.59961 10 5.59961C12.757 5.59961 15 7.84205 15 10.5996C15 13.3572 12.757 15.5996 10 15.5996ZM15.625 5.59961C15.2798 5.59961 15 5.31976 15 4.97461C15 4.62938 15.2798 4.34961 15.625 4.34961C15.9702 4.34961 16.25 4.62938 16.25 4.97461C16.25 5.31976 15.9702 5.59961 15.625 5.59961Z" fill="#BBBBBB"/>
</g>
<defs>
<clipPath id="clip0_458_741">
<rect width="20" height="20" fill="white" transform="translate(0 0.599609)"/>
</clipPath>
</defs>
</svg>
