<svg width="20" height="21" viewBox="0 0 20 21" fill="none" xmlns="http://www.w3.org/2000/svg">
<g clip-path="url(#clip0_458_739)">
<path d="M19.607 14.6009C16.9333 14.1609 15.7283 11.4221 15.6795 11.3059L15.6683 11.2834C15.532 11.0059 15.4995 10.7771 15.5745 10.6034C15.7208 10.2609 16.2808 10.0834 16.6508 9.96586C16.7583 9.93211 16.8595 9.89961 16.9433 9.86711C17.3083 9.72336 17.5683 9.56711 17.7408 9.39086C17.9458 9.17961 17.9858 8.97711 17.9833 8.84586C17.977 8.52586 17.732 8.24086 17.3408 8.10211C17.2024 8.047 17.0547 8.01899 16.9058 8.01961C16.7664 8.01765 16.6283 8.04579 16.5008 8.10211C16.1883 8.24836 15.9083 8.32836 15.667 8.33961C15.572 8.33694 15.4784 8.3166 15.3908 8.27961L15.4145 7.89336L15.4183 7.83586C15.5045 6.48211 15.6108 4.79836 15.1633 3.79836C14.8753 3.13935 14.4594 2.54408 13.9395 2.04711C13.5108 1.64364 13.0156 1.31718 12.4758 1.08211C11.7552 0.767741 10.9782 0.603565 10.192 0.599609L10.142 0.599609L9.79829 0.603359C9.35454 0.603359 8.46579 0.665859 7.51204 1.08586C6.97384 1.32055 6.4803 1.64661 6.05329 2.04961C5.53601 2.54624 5.12185 3.14009 4.83454 3.79711C4.38704 4.79586 4.49329 6.47961 4.57829 7.83211V7.83461L4.60579 8.27836C4.50214 8.32153 4.39055 8.3424 4.27829 8.33961C4.02579 8.33961 3.72579 8.25961 3.38704 8.10086C3.28058 8.0531 3.16496 8.02921 3.04829 8.03086C2.83744 8.033 2.6309 8.09078 2.44954 8.19836C2.21704 8.33461 2.06704 8.52586 2.02579 8.73961C1.99954 8.87961 2.00079 9.15836 2.31079 9.44086C2.48204 9.59586 2.73204 9.73961 3.05579 9.86711C3.14079 9.90086 3.24204 9.93211 3.34829 9.96586C3.71829 10.0834 4.27954 10.2609 4.42579 10.6034C4.49954 10.7771 4.46704 11.0059 4.33079 11.2834L4.32079 11.3059C4.05974 11.8697 3.72057 12.3941 3.31329 12.8634C2.9619 13.2774 2.5527 13.6386 2.09829 13.9359C1.58141 14.2724 1.00049 14.4984 0.392044 14.5996C0.278037 14.618 0.174906 14.678 0.102626 14.7681C0.0303455 14.8581 -0.00594091 14.9718 0.0007942 15.0871C0.0045442 15.1559 0.0207942 15.2246 0.0495442 15.2909C0.145794 15.5146 0.367044 15.7046 0.727044 15.8709C1.16704 16.0746 1.82454 16.2459 2.68329 16.3796C2.72704 16.4621 2.77204 16.6684 2.80329 16.8096C2.83579 16.9596 2.86954 17.1146 2.91829 17.2784C2.97079 17.4559 3.10579 17.6684 3.45454 17.6684C3.58704 17.6684 3.73829 17.6384 3.91454 17.6046C4.17204 17.5546 4.52454 17.4859 4.96329 17.4859C5.20704 17.4859 5.45954 17.5071 5.71329 17.5496C6.20329 17.6309 6.62579 17.9284 7.11454 18.2734C7.82954 18.7784 8.63954 19.3496 9.87704 19.3496L9.97829 19.3459C10.0183 19.3484 10.0695 19.3496 10.122 19.3496C11.3595 19.3496 12.1695 18.7784 12.8845 18.2746L12.8858 18.2734C13.3745 17.9296 13.797 17.6321 14.287 17.5509C14.5408 17.5084 14.7933 17.4871 15.037 17.4871C15.457 17.4871 15.7895 17.5409 16.0858 17.5984C16.2795 17.6359 16.4295 17.6546 16.5458 17.6546H16.5683C16.6851 17.6598 16.8 17.6244 16.8937 17.5544C16.9873 17.4845 17.0539 17.3843 17.082 17.2709C17.126 17.1173 17.1643 16.9622 17.197 16.8059C17.2258 16.6734 17.2733 16.4609 17.3158 16.3784C18.1745 16.2434 18.832 16.0734 19.272 15.8696C19.6308 15.7034 19.852 15.5146 19.9483 15.2921C19.9772 15.2269 19.9941 15.1571 19.9983 15.0859C20.0047 14.9709 19.9682 14.8577 19.8959 14.7681C19.8237 14.6785 19.7207 14.6189 19.607 14.6009Z" fill="#BBBBBB"/>
</g>
<defs>
<clipPath id="clip0_458_739">
<rect width="20" height="20" fill="white" transform="translate(0 0.599609)"/>
</clipPath>
</defs>
</svg>
