<svg width="12" height="18" viewBox="0 0 12 18" fill="none" xmlns="http://www.w3.org/2000/svg">
<path d="M4.67096 7.09079V6.39001C4.48968 6.35794 4.30538 6.3379 4.11504 6.3379C1.84603 6.33395 0 8.7808 0 11.7924C0 13.6385 0.694904 15.2725 1.75841 16.2617C1.07257 15.2885 0.652605 13.9789 0.652605 12.5453C0.652605 9.57773 2.44727 7.15888 4.67096 7.09079Z" fill="#BDBDBD"/>
<path d="M4.77078 15.0338C5.78294 15.0338 6.61077 13.9645 6.64705 12.635L6.65007 0.752892H8.28762C8.25436 0.508602 8.23625 0.256305 8.23625 0H6.00047L5.99744 11.8821C5.96121 13.2117 5.13333 14.2809 4.12121 14.2809C3.80699 14.2809 3.5109 14.1768 3.24805 13.9925C3.58643 14.6213 4.14236 15.0338 4.77078 15.0338Z" fill="#BDBDBD"/>
<path d="M11.3473 4.7866V4.12586C10.7219 4.12586 10.1418 3.88155 9.65234 3.45703C10.0874 4.11784 10.6766 4.59843 11.3473 4.7866Z" fill="#BDBDBD"/>
<path d="M9.65458 3.45513C9.17719 2.73029 8.89018 1.78517 8.89018 0.751953H8.29199C8.44605 1.88129 8.95366 2.85045 9.65458 3.45513Z" fill="#BDBDBD"/>
<path d="M4.11754 9.29461C3.08123 9.29461 2.23828 10.412 2.23828 11.7856C2.23828 12.7427 2.64918 13.5757 3.2474 13.9922C3.02382 13.5837 2.89089 13.0831 2.89089 12.5385C2.89089 11.1648 3.73383 10.0475 4.77016 10.0475C4.96352 10.0475 5.15083 10.0915 5.32607 10.1636V7.1361C5.14477 7.10403 4.96049 7.08398 4.77016 7.08398C4.73691 7.08398 4.7067 7.08799 4.67346 7.08799V9.41075C4.4952 9.33865 4.3109 9.29461 4.11754 9.29461Z" fill="#BDBDBD"/>
<path d="M11.3475 4.7832V7.08592C10.1873 7.08592 9.11172 6.59336 8.2355 5.76035V11.7875C8.2355 14.7951 6.38951 17.246 4.11746 17.246C3.24128 17.246 2.42552 16.8775 1.75781 16.2568C2.51012 17.326 3.58269 17.9989 4.77009 17.9989C7.03907 17.9989 8.88813 15.552 8.88813 12.5404V6.51325C9.7643 7.34626 10.8399 7.83881 12.0001 7.83881V4.87535C11.7735 4.87535 11.5559 4.84328 11.3475 4.7832Z" fill="#BDBDBD"/>
<path d="M8.23681 11.789V5.76185C9.11303 6.59486 10.1886 7.08742 11.3488 7.08742V4.7847C10.6781 4.59653 10.0889 4.11594 9.65384 3.45513C8.95287 2.85045 8.44833 1.88129 8.28818 0.751953H6.65064L6.64761 12.634C6.61138 13.9635 5.7835 15.0328 4.7714 15.0328C4.14294 15.0328 3.59004 14.6203 3.24561 13.9956C2.64739 13.5751 2.23649 12.7462 2.23649 11.789C2.23649 10.4154 3.07944 9.29805 4.11575 9.29805C4.30911 9.29805 4.49644 9.34208 4.67168 9.41418V7.09143C2.44798 7.15551 0.65332 9.57436 0.65332 12.5419C0.65332 13.9756 1.07328 15.2812 1.75912 16.2583C2.42683 16.879 3.24259 17.2475 4.11877 17.2475C6.38779 17.2475 8.23681 14.7966 8.23681 11.789Z" fill="#BDBDBD"/>
</svg>
